<svg width="100" height="100" viewBox="0 0 100 100" fill="none" xmlns="http://www.w3.org/2000/svg">
<path d="M26 78H31.6V83.6C31.6 85.2974 32.2743 86.9253 33.4745 88.1255C34.6748 89.3257 36.3026 90 38 90C39.6974 90 41.3252 89.3257 42.5255 88.1255C43.7257 86.9253 44.4 85.2974 44.4 83.6V78H55.6V83.6C55.6 85.2974 56.2743 86.9253 57.4745 88.1255C58.6748 89.3257 60.3026 90 62 90C63.6974 90 65.3253 89.3257 66.5255 88.1255C67.7257 86.9253 68.4 85.2974 68.4 83.6V78H74V42.8H26V78Z" fill="white"/>
<path d="M74.984 10.432C74.4989 10.1475 73.9464 9.99832 73.384 10C72.8228 10.0006 72.2717 10.1487 71.7859 10.4296C71.3 10.7104 70.8966 11.114 70.616 11.6L65.816 19.944C61.4415 16.1181 55.8275 14.0094 50.016 14.0094C44.2045 14.0094 38.5905 16.1181 34.216 19.944L29.384 11.6C29.1034 11.114 28.7 10.7104 28.2141 10.4296C27.7283 10.1487 27.1772 10.0006 26.616 10C26.0536 9.99832 25.5011 10.1475 25.016 10.432C24.2811 10.8556 23.7444 11.5536 23.5239 12.3726C23.3034 13.1917 23.4171 14.0647 23.84 14.8L29.784 25.088C27.3053 28.9377 25.9913 33.4214 26 38H74C74.0087 33.4214 72.6947 28.9377 70.216 25.088L76.16 14.8C76.5829 14.0647 76.6966 13.1917 76.4761 12.3726C76.2556 11.5536 75.7189 10.8556 74.984 10.432ZM40.8 31.6C40.3253 31.6 39.8613 31.4593 39.4666 31.1955C39.072 30.9318 38.7643 30.557 38.5827 30.1184C38.401 29.6799 38.3535 29.1973 38.4461 28.7318C38.5387 28.2662 38.7673 27.8386 39.1029 27.503C39.4386 27.1673 39.8662 26.9387 40.3318 26.8461C40.7973 26.7535 41.2799 26.8011 41.7184 26.9827C42.157 27.1644 42.5318 27.472 42.7955 27.8666C43.0592 28.2613 43.2 28.7253 43.2 29.2C43.2 29.8365 42.9471 30.447 42.4971 30.8971C42.047 31.3472 41.4365 31.6 40.8 31.6ZM59.2 31.6C58.7253 31.6 58.2613 31.4593 57.8666 31.1955C57.472 30.9318 57.1643 30.557 56.9827 30.1184C56.801 29.6799 56.7535 29.1973 56.8461 28.7318C56.9387 28.2662 57.1673 27.8386 57.5029 27.503C57.8386 27.1673 58.2662 26.9387 58.7318 26.8461C59.1973 26.7535 59.6799 26.8011 60.1184 26.9827C60.557 27.1644 60.9318 27.472 61.1955 27.8666C61.4592 28.2613 61.6 28.7253 61.6 29.2C61.6 29.8365 61.3471 30.447 60.8971 30.8971C60.447 31.3472 59.8365 31.6 59.2 31.6Z" fill="white"/>
<path d="M85.2 42.8C83.927 42.8 82.7061 43.3057 81.8059 44.2059C80.9057 45.1061 80.4 46.327 80.4 47.6V63.6C80.4 64.873 80.9057 66.0939 81.8059 66.9941C82.7061 67.8943 83.927 68.4 85.2 68.4C86.473 68.4 87.6939 67.8943 88.5941 66.9941C89.4943 66.0939 90 64.873 90 63.6V47.6C90 46.327 89.4943 45.1061 88.5941 44.2059C87.6939 43.3057 86.473 42.8 85.2 42.8Z" fill="white"/>
<path d="M14.8 42.8C13.527 42.8 12.3061 43.3057 11.4059 44.2059C10.5057 45.1061 10 46.327 10 47.6V63.6C10 64.873 10.5057 66.0939 11.4059 66.9941C12.3061 67.8943 13.527 68.4 14.8 68.4C16.073 68.4 17.2939 67.8943 18.1941 66.9941C19.0943 66.0939 19.6 64.873 19.6 63.6V47.6C19.6 46.327 19.0943 45.1061 18.1941 44.2059C17.2939 43.3057 16.073 42.8 14.8 42.8Z" fill="white"/>
</svg>
